HIERARCHY
ROOT RootJoint
{
    OFFSET   0.000000   0.000000   0.000000
    CHANNELS 6 Xposition Yposition Zposition Xrotation Yrotation Zrotation
    JOINT pelvis_lowerback
    {
        OFFSET   0.000000   0.093605   0.000000
        CHANNELS 3 Xrotation Yrotation Zrotation
        JOINT lowerback_torso
        {
            OFFSET   0.000000   0.100000   0.000000
            CHANNELS 3 Xrotation Yrotation Zrotation
            JOINT torso_head
            {
                OFFSET   0.000000   0.282350   0.000000
                CHANNELS 3 Xrotation Yrotation Zrotation
                End Site
                {
                    OFFSET   0.000000   0.192650   0.000000
                }
            }
            JOINT rTorso_Clavicle
            {
                OFFSET  -0.001000   0.157500   0.000000
                CHANNELS 3 Xrotation Yrotation Zrotation
                JOINT rShoulder
                {
                    OFFSET  -0.117647   0.000000   0.000000
                    CHANNELS 3 Xrotation Yrotation Zrotation
                    JOINT rElbow
                    {
                        OFFSET  -0.245000   0.000000   0.000000
                        CHANNELS 3 Xrotation Yrotation Zrotation
                        JOINT rWrist
                        {
                            OFFSET  -0.240000   0.000000   0.000000
                            CHANNELS 3 Xrotation Yrotation Zrotation
                            End Site
                            {
                                OFFSET  -0.116353  -0.002500   0.000000
                            }
                        }
                    }
                }
            }
            JOINT lTorso_Clavicle
            {
                OFFSET   0.001000   0.157500   0.000000
                CHANNELS 3 Xrotation Yrotation Zrotation
                JOINT lShoulder
                {
                    OFFSET   0.117647   0.000000   0.000000
                    CHANNELS 3 Xrotation Yrotation Zrotation
                    JOINT lElbow
                    {
                        OFFSET   0.245000   0.000000   0.000000
                        CHANNELS 3 Xrotation Yrotation Zrotation
                        JOINT lWrist
                        {
                            OFFSET   0.240000   0.000000   0.000000
                            CHANNELS 3 Xrotation Yrotation Zrotation
                            End Site
                            {
                                OFFSET   0.116353  -0.002500   0.000000
                            }
                        }
                    }
                }
            }
        }
    }
    JOINT rHip
    {
        OFFSET  -0.100000  -0.051395   0.000000
        CHANNELS 3 Xrotation Yrotation Zrotation
        JOINT rKnee
        {
            OFFSET   0.000000  -0.410000   0.000000
            CHANNELS 3 Xrotation Yrotation Zrotation
            JOINT rAnkle
            {
                OFFSET   0.000000  -0.390000   0.000000
                CHANNELS 3 Xrotation Yrotation Zrotation
                JOINT rToeJoint
                {
                    OFFSET   0.000000  -0.050000   0.130000
                    CHANNELS 3 Xrotation Yrotation Zrotation
                    End Site
                    {
                        OFFSET  -0.010000   0.002000   0.060000
                    }
                }
            }
        }
    }
    JOINT lHip
    {
        OFFSET   0.100000  -0.051395   0.000000
        CHANNELS 3 Xrotation Yrotation Zrotation
        JOINT lKnee
        {
            OFFSET   0.000000  -0.410000   0.000000
            CHANNELS 3 Xrotation Yrotation Zrotation
            JOINT lAnkle
            {
                OFFSET   0.000000  -0.390000   0.000000
                CHANNELS 3 Xrotation Yrotation Zrotation
                JOINT lToeJoint
                {
                    OFFSET   0.000000  -0.050000   0.130000
                    CHANNELS 3 Xrotation Yrotation Zrotation
                    End Site
                    {
                        OFFSET   0.010000   0.002000   0.060000
                    }
                }
            }
        }
    }
}
MOTION
Frames: 17
Frame Time:   0.008333
 -1.904089   0.783318   4.098243  31.631513  37.791938  -8.396896  80.167694   5.038286  10.715541  -2.183380   0.947273  -2.648991   2.372646 -13.994827  -6.693540  -5.014709  44.890588 -21.937270 -34.798148  22.684109 -11.484851  -0.000168   0.326039   0.000533   1.885259   1.406412 -26.965938  -9.032950 -15.403819  -6.894334   5.118345  -2.868319 -35.206107  -0.001690 -59.973830  -0.001342   1.388253  -8.081008  16.719693 -72.897267   2.970733 -10.834053  66.041917  -0.000346  -0.002628 -17.679243  -1.521605  -1.503738  -1.389321   0.000056   0.000565 -59.988369   8.599225   1.147295  71.687337   0.000365  -0.000962 -10.809438   0.497757  -8.091761 -33.829164  -0.001848   0.003901
 -1.902835   0.782032   4.096906  31.421206  37.583735  -8.322617  80.251328   4.960938  10.706346  -2.087290   0.941443  -2.686954   2.285041 -14.021429  -6.775120  -4.851575  44.897436 -21.979282 -34.783251  22.720752 -11.412388  -0.000025   0.404298   0.000357   1.923167   1.372775 -26.986074  -8.915293 -15.292838  -6.900942   5.195510  -2.755974 -35.515718  -0.001358 -59.972476  -0.001077   1.369365  -8.062725  16.602727 -72.992974   2.844652 -10.811481  66.247439  -0.000419  -0.002600 -17.779816  -1.562302  -1.391969  -1.281274  -0.000040   0.000138 -59.927298   8.612251   1.198715  71.916963   0.000300  -0.001154 -11.006764   0.507526  -7.867344 -35.285181  -0.000928   0.006237
 -1.901569   0.780870   4.095558  31.211571  37.380791  -8.248825  80.311920   4.883425  10.706886  -1.988750   0.938199  -2.718150   2.198041 -14.046434  -6.855082  -4.682481  44.904322 -21.999566 -34.769464  22.750088 -11.319255   0.000102   0.479247   0.000233   1.974953   1.369393 -26.971667  -8.796273 -15.181654  -6.919517   5.275382  -2.649816 -35.819236  -0.001084 -59.973019  -0.000860   1.353114  -8.055475  16.473687 -73.064516   2.718845 -10.795500  66.416972  -0.000445  -0.002487 -17.876130  -1.597370  -1.286308  -1.156432  -0.000123  -0.000241 -59.856762   8.640265   1.260743  72.101362   0.000262  -0.001198 -11.206026   0.514864  -7.780991 -36.701223  -0.001676   0.006854
 -1.900303   0.779822   4.094208  30.999458  37.165888  -8.161497  80.361954   4.809520  10.699560  -1.893967   0.936429  -2.749949   2.113401 -14.069685  -6.930605  -4.519025  44.910757 -22.003641 -34.757951  22.770974 -11.218866   0.000196   0.547015   0.000155   2.023615   1.363686 -26.932920  -8.681167 -15.074753  -6.943877   5.353891  -2.550433 -36.108506  -0.000866 -59.973237  -0.000687   1.337874  -8.050576  16.335429 -73.122360   2.600703 -10.776774  66.555967  -0.000451  -0.002329 -17.956089  -1.629388  -1.184379  -1.030789  -0.000188  -0.000550 -59.776242   8.653298   1.299756  72.289736   0.000193  -0.001295 -11.387452   0.521199  -7.574987 -37.970019  -0.001267   0.008339
 -1.899151   0.779055   4.092945  30.795555  37.012220  -8.072230  80.423419   4.720023  10.725797  -1.810658   0.908846  -2.747176   2.033509 -14.089726  -7.004396  -4.427806  45.103603 -21.950358 -34.754822  22.753306 -11.137281   0.000249   0.597639   0.000168   2.053291   1.317415 -26.904624  -8.571086 -14.967704  -6.962479   5.429760  -2.451474 -36.375293  -0.000704 -59.970238  -0.000557   1.318467  -8.032271  16.213243 -73.134616   2.495772 -10.797193  66.650896  -0.000410  -0.002067 -18.009384  -1.662465  -1.085379  -0.928492  -0.000216  -0.000696 -59.778254   8.723302   1.348750  72.579890   0.000287  -0.001361 -11.636731   0.579935  -7.480697 -37.741006  -0.000926   0.006556
 -1.898046   0.778442   4.091758  30.592333  36.869278  -7.966371  80.483104   4.656195  10.744720  -1.720334   0.908067  -2.752226   1.956008 -14.111589  -7.063756  -4.257306  45.072069 -21.960500 -34.744601  22.780183 -11.031022   0.000312   0.657659   0.000106   2.083724   1.293602 -26.849866  -8.479920 -14.887079  -6.983139   5.492294  -2.373692 -36.625128  -0.000553 -59.973520  -0.000440   1.307582  -8.036436  16.082097 -73.132698   2.398298 -10.829900  66.725161  -0.000370  -0.001811 -18.034824  -1.703226  -0.989072  -0.439739  -0.000505  -0.001807 -59.765594   8.806614   1.388526  72.835245   0.000345  -0.001351 -11.802955   0.618630  -7.398765 -37.607063  -0.000684   0.005182
 -1.896989   0.777924   4.090628  30.396853  36.731176  -7.861482  80.530715   4.599742  10.761367  -1.633550   0.907818  -2.756999   1.885276 -14.130030  -7.122865  -4.111703  45.047006 -21.949064 -34.736446  22.791627 -10.931105   0.000344   0.710790   0.000072   2.121256   1.278373 -26.784048  -8.390975 -14.803533  -7.003441   5.553879  -2.296852 -36.859313  -0.000437 -59.975812  -0.000348   1.297696  -8.044018  15.959394 -73.117229   2.313010 -10.860582  66.778184  -0.000322  -0.001555 -18.056234  -1.730799  -0.896561  -0.447876  -0.000399  -0.001427 -59.743531   8.879910   1.422228  73.059953   0.000355  -0.001313 -11.941908   0.642310  -7.322439 -37.505238  -0.000501   0.004083
 -1.895984   0.777559   4.089688  30.124881  36.629974  -7.735263  80.605762   4.502962  10.763139  -1.509519   0.910986  -2.733425   1.833466 -14.098529  -7.196427  -4.009130  45.026360 -21.897339 -34.644891  22.760856 -10.710056   0.000588   0.821496  -0.000068   2.144452   1.260061 -26.786316  -8.321931 -14.696663  -6.993297   5.595929  -2.175440 -37.175461  -0.000321 -59.988594  -0.000272   1.278386  -8.040473  15.850732 -72.987547   2.177291 -10.897971  66.790178  -0.000265  -0.001267 -18.140491  -1.807241  -0.815381  -0.358614  -0.000383  -0.001381 -59.607927   8.957012   1.466416  73.229969   0.000384  -0.001167 -12.131667   0.669195  -7.227618 -37.347245  -0.000365   0.003213
 -1.895117   0.777323   4.088918  29.865701  36.581060  -7.661856  80.664781   4.416094  10.782407  -1.377924   0.922815  -2.695096   1.781938 -14.067909  -7.266949  -3.894823  45.010918 -21.814543 -34.561124  22.718926 -10.467123   0.000793   0.921886  -0.000179   2.170483   1.246803 -26.738147  -8.250265 -14.585276  -6.990753   5.641267  -2.057166 -37.479127  -0.000227 -60.000632  -0.000212   1.257788  -8.036883  15.752105 -72.833974   2.093198 -10.913485  66.822251  -0.000210  -0.001047 -18.137053  -1.805863  -0.725691  -0.415660  -0.000285  -0.001051 -59.462957   8.986965   1.519065  73.366635   0.000396  -0.000984 -12.299630   0.667355  -7.127416 -37.209845  -0.000275   0.002528
 -1.894334   0.777181   4.088261  29.623935  36.553446  -7.602994  80.709369   4.330680  10.797667  -1.249054   0.934845  -2.656945   1.730231 -14.039431  -7.334629  -3.781783  44.999241 -21.710846 -34.485193  22.667687 -10.219728   0.000931   1.011062  -0.000254   2.188543   1.219279 -26.653480  -8.178336 -14.475502  -6.994024   5.688241  -1.944752 -37.767754  -0.000156 -60.011166  -0.000165   1.237585  -8.032635  15.649011 -72.671648   2.001186 -10.933387  66.836689  -0.000167  -0.000850 -18.136701  -1.827307  -0.638661  -0.458251  -0.000210  -0.000798 -59.312937   9.004455   1.565993  73.472078   0.000385  -0.000812 -12.447143   0.654831  -7.033821 -37.083974  -0.000207   0.001987
 -1.893619   0.777102   4.087687  29.398897  36.535078  -7.550598  80.742199   4.248949  10.805444  -1.126646   0.946798  -2.624423   1.679350 -14.012768  -7.399820  -3.674082  44.990407 -21.597451 -34.415836  22.611718  -9.977046   0.001005   1.090942  -0.000297   2.198580   1.177830 -26.548197  -8.107600 -14.369095  -7.001421   5.735596  -1.838588 -38.041188  -0.000102 -60.020482  -0.000130   1.217751  -8.027538  15.541584 -72.510390   1.905841 -10.956247  66.839010  -0.000133  -0.000682 -18.137121  -1.857848  -0.556918  -0.489653  -0.000155  -0.000606 -59.162848   9.017783   1.607968  73.554449   0.000358  -0.000665 -12.578211   0.638893  -6.947445 -36.969759  -0.000155   0.001561
 -1.892964   0.777065   4.087182  29.188626  36.521910  -7.501721  80.765701   4.172156  10.806126  -1.012173   0.959227  -2.598594   1.630167 -13.987747  -7.462215  -3.572875  44.983760 -21.482121 -34.351901  22.554848  -9.744126   0.001029   1.163454  -0.000317   2.203131   1.127614 -26.433456  -8.038889 -14.266718  -7.011522   5.782525  -1.738479 -38.299400  -0.000063 -60.028743  -0.000103   1.198253  -8.021454  15.432294 -72.353706   1.809743 -10.980852  66.833871  -0.000107  -0.000542 -18.138336  -1.892955  -0.480133  -0.512135  -0.000114  -0.000462 -59.015194   9.029063   1.645779  73.620216   0.000323  -0.000541 -12.695843   0.622069  -6.868203 -36.866434  -0.000116   0.001225
 -1.892367   0.777053   4.086734  28.991485  36.512545  -7.455132  80.781516   4.100797  10.800735  -0.906300   0.972520  -2.579222   1.583210 -13.964265  -7.521514  -3.478338  44.978805 -21.369687 -34.292528  22.499602  -9.523567   0.001016   1.230070  -0.000322   2.204599   1.073426 -26.316226  -7.972733 -14.168680  -7.023155   5.828460  -1.644131 -38.542526  -0.000035 -60.036071  -0.000083   1.179088  -8.014331  15.323340 -72.203026   1.714912 -11.006355  66.824700  -0.000085  -0.000427 -18.140604  -1.930091  -0.408233  -0.527666  -0.000085  -0.000353 -58.871466   9.038864   1.679994  73.673948   0.000287  -0.000439 -12.802195   0.605125  -6.795736 -36.772981  -0.000087   0.000962
 -1.891857   0.777155   4.086468  28.746048  36.543313  -7.410525  80.805330   4.038507  10.785289  -0.747208   0.976330  -2.532179   1.518222 -13.947481  -7.561664  -3.454183  44.973202 -21.207520 -34.243749  22.423313  -9.223211   0.001326   1.381286  -0.000402   2.201669   1.039884 -26.237619  -7.941396 -14.093290  -7.060080   5.807919  -1.491727 -38.749716  -0.000037 -60.027129  -0.000054   1.165606  -8.000701  15.170231 -71.965258   1.633816 -11.020369  66.805543  -0.000074  -0.000337 -18.157445  -1.916236  -0.337125  -0.543052  -0.000064  -0.000283 -58.654873   9.054141   1.740021  73.692005   0.000244  -0.000344 -12.944033   0.572363  -6.720076 -36.611359  -0.000074   0.000799
 -1.891420   0.777327   4.086288  28.515663  36.596373  -7.382551  80.817600   3.976782  10.770270  -0.590528   0.979185  -2.481975   1.455991 -13.932293  -7.599533  -3.420856  44.969174 -21.033955 -34.198978  22.344792  -8.920637   0.001553   1.521971  -0.000468   2.204175   1.021652 -26.133624  -7.916803 -14.022575  -7.094652   5.784890  -1.348438 -38.939275  -0.000038 -60.017685  -0.000029   1.149885  -7.980309  15.043815 -71.720671   1.542353 -11.039517  66.773611  -0.000070  -0.000267 -18.176998  -1.918438  -0.268241  -0.553485  -0.000048  -0.000226 -58.436380   9.067464   1.799932  73.687639   0.000191  -0.000278 -13.075965   0.538065  -6.648055 -36.443794  -0.000071   0.000703
 -1.891036   0.777540   4.086162  28.304066  36.658481  -7.363958  80.820140   3.916331  10.752036  -0.443757   0.981833  -2.435258   1.395724 -13.918117  -7.636626  -3.384158  44.966267 -20.858315 -34.157661  22.265880  -8.625702   0.001685   1.651186  -0.000511   2.204391   0.999205 -26.010234  -7.895076 -13.956440  -7.126332   5.762721  -1.215215 -39.115464  -0.000038 -60.009575  -0.000011   1.135535  -7.963745  14.927779 -71.482387   1.449216 -11.061294  66.733333  -0.000069  -0.000213 -18.195971  -1.927725  -0.203309  -0.560374  -0.000037  -0.000181 -58.224236   9.074886   1.854990  73.666719   0.000134  -0.000235 -13.198745   0.499051  -6.580702 -36.276403  -0.000069   0.000626
 -1.890694   0.777775   4.086072  28.109039  36.724388  -7.350827  80.815453   3.858321  10.730334  -0.308048   0.984617  -2.393948   1.337856 -13.904779  -7.672689  -3.347418  44.964162 -20.686585 -34.119267  22.188894  -8.343731   0.001735   1.770348  -0.000533   2.201725   0.971413 -25.877533  -7.875198 -13.894464  -7.155920   5.742052  -1.091224 -39.279971  -0.000037 -60.002580   0.000001   1.122742  -7.951666  14.817172 -71.253773   1.357437 -11.084184  66.688768  -0.000068  -0.000171 -18.214191  -1.940623  -0.142243  -0.564534  -0.000028  -0.000145 -58.020868   9.078434   1.905426  73.635797   0.000081  -0.000207 -13.312601   0.458485  -6.519232 -36.112492  -0.000066   0.000562
